<?xml version="1.0" standalone="no"?>
<!DOCTYPE svg PUBLIC "-//W3C//DTD SVG 20010904//EN"
 "http://www.w3.org/TR/2001/REC-SVG-20010904/DTD/svg10.dtd">
<svg version="1.0" xmlns="http://www.w3.org/2000/svg"
 width="536.000000pt" height="730.000000pt" viewBox="0 0 536.000000 730.000000"
 preserveAspectRatio="xMidYMid meet">

<g transform="translate(0.000000,730.000000) scale(0.100000,-0.100000)"
fill="#000000" stroke="none">
<path d="M877 6860 c-101 -17 -177 -86 -217 -198 -19 -53 -22 -75 -17 -144 10
-146 78 -234 211 -273 28 -8 120 -19 204 -23 l153 -8 30 -31 c23 -22 32 -42
36 -74 4 -51 -10 -83 -50 -113 -27 -20 -44 -21 -290 -26 l-262 -5 0 -105 0
-105 249 -3 c138 -1 274 2 304 8 147 27 231 119 254 279 20 138 -27 268 -126
342 -69 52 -102 60 -278 66 -152 5 -159 7 -183 31 -38 38 -35 102 6 136 l31
26 229 0 229 0 0 115 0 115 -232 -1 c-128 -1 -254 -5 -281 -9z"/>
<path d="M1812 6580 c-65 -12 -102 -31 -145 -74 -40 -39 -67 -94 -74 -147 l-6
-39 93 0 93 0 32 37 c31 36 32 37 111 37 55 0 88 -5 111 -17 32 -17 37 -25 47
-89 l7 -36 -173 -4 c-163 -3 -176 -4 -218 -28 -28 -16 -55 -43 -75 -74 -28
-46 -30 -57 -30 -140 0 -79 3 -97 25 -135 35 -62 85 -99 149 -111 30 -5 157
-10 283 -10 l229 0 -3 318 -3 317 -27 50 c-55 105 -124 142 -274 149 -55 3
-123 1 -152 -4z m266 -572 l3 -78 -145 0 c-138 0 -146 1 -160 22 -24 34 -20
85 9 114 24 24 28 25 157 22 l133 -3 3 -77z"/>
<path d="M2400 6278 c0 -308 1 -314 24 -363 29 -61 76 -107 136 -134 58 -25
177 -36 260 -22 43 7 66 7 70 0 4 -6 45 -9 101 -7 l94 3 0 415 0 415 -97 3
-97 3 -3 -291 -3 -292 -33 -29 c-30 -27 -39 -29 -108 -29 -89 0 -127 16 -143
61 -7 20 -11 131 -11 305 l0 274 -95 0 -95 0 0 -312z"/>
<path d="M3220 6170 l0 -420 94 0 94 0 4 283 c3 305 6 319 60 348 30 16 146
17 183 1 59 -24 60 -30 63 -344 l4 -288 94 0 94 0 0 313 c0 284 -2 316 -19
353 -28 61 -85 119 -141 143 -62 27 -183 37 -270 22 -42 -7 -66 -7 -68 -1 -2
6 -45 10 -98 10 l-94 0 0 -420z"/>
<path d="M4242 6580 c-65 -12 -102 -31 -145 -74 -40 -39 -67 -94 -74 -147 l-6
-39 93 0 93 0 32 37 c31 36 32 37 111 37 55 0 88 -5 111 -17 32 -17 37 -25 47
-89 l7 -36 -173 -4 c-163 -3 -176 -4 -218 -28 -28 -16 -55 -43 -75 -74 -28
-46 -30 -57 -30 -140 0 -79 3 -97 25 -135 35 -62 85 -99 149 -111 30 -5 157
-10 283 -10 l229 0 -3 318 -3 317 -27 50 c-55 105 -124 142 -274 149 -55 3
-123 1 -152 -4z m266 -572 l3 -78 -145 0 c-138 0 -146 1 -160 22 -24 34 -20
85 9 114 24 24 28 25 157 22 l133 -3 3 -77z"/>
<path d="M1770 4853 c-14 -3 -57 -20 -95 -38 -328 -156 -330 -607 -4 -777 62
-32 68 -33 184 -33 116 0 123 1 185 32 81 41 138 92 184 165 46 73 59 136 54
257 -3 82 -8 105 -33 155 -91 179 -279 274 -475 239z"/>
<path d="M3574 4768 c-85 -91 -146 -218 -176 -369 -22 -107 -22 -108 -4 -221
10 -62 29 -147 43 -188 24 -73 35 -100 74 -185 59 -131 99 -290 99 -394 0 -80
-16 -165 -56 -294 -39 -128 -29 -177 39 -177 41 0 45 4 94 70 191 258 204 597
37 965 -52 115 -94 286 -94 383 0 67 15 149 51 274 26 90 25 133 -3 152 -36
25 -71 20 -104 -16z"/>
<path d="M4525 4490 c-43 -17 -132 -151 -175 -261 -81 -210 -58 -418 80 -739
80 -186 110 -343 91 -471 -7 -41 -26 -121 -43 -179 -44 -149 -44 -157 -17
-186 22 -23 63 -31 85 -16 26 18 93 115 126 183 84 170 107 355 69 543 -22
104 -51 196 -92 285 -12 24 -37 92 -57 150 -35 102 -36 111 -37 246 0 127 3
151 33 259 37 139 37 138 15 164 -22 25 -51 33 -78 22z"/>
<path d="M1979 3920 c-114 -20 -241 -116 -295 -223 -15 -28 -55 -101 -89 -162
-34 -60 -77 -137 -94 -170 -36 -66 -154 -280 -266 -480 -40 -71 -90 -161 -110
-200 -21 -38 -66 -119 -100 -180 -163 -290 -175 -317 -175 -386 1 -120 64
-204 180 -240 l66 -20 64 20 c39 13 78 33 98 52 19 17 146 201 284 408 137
207 253 377 257 379 4 1 15 -39 25 -90 77 -405 84 -438 107 -493 50 -116 172
-227 267 -241 49 -7 757 1 1033 12 177 8 160 17 184 -91 7 -33 43 -177 80
-320 37 -143 75 -294 84 -335 70 -289 135 -519 156 -552 60 -90 193 -121 287
-66 59 35 83 66 105 134 15 50 15 59 -1 151 -28 165 -44 260 -76 458 -17 105
-37 228 -45 275 -26 150 -55 328 -94 580 -31 195 -45 235 -107 297 -33 33 -65
55 -90 62 -55 14 -355 29 -741 37 l-331 6 -7 51 c-4 28 -11 58 -16 67 -4 8
-15 56 -24 105 -23 133 -75 394 -101 510 -8 39 -21 104 -29 145 -52 277 -60
297 -153 389 -52 52 -80 72 -127 89 -72 25 -144 33 -206 22z"/>
<path d="M720 1560 l0 -210 1025 0 1025 0 0 -500 0 -500 210 0 210 0 0 710 0
710 -1235 0 -1235 0 0 -210z"/>
</g>
</svg>
